<svg xmlns="http://www.w3.org/2000/svg" width="148" height="48" fill="none">
    <path transform="translate(14, 0)" fill="#4EA8DE" d="M49 17.182v5.682H34.625v-5.682H49Zm-11.59-5.227h7.84v20.028c0 .303.052.559.156.767.104.199.265.35.483.455.218.094.497.142.838.142.237 0 .512-.029.824-.086.322-.056.559-.104.71-.142l1.137 5.512c-.35.104-.853.232-1.506.383-.644.152-1.41.251-2.301.298-1.8.095-3.31-.09-4.531-.553-1.222-.474-2.14-1.217-2.756-2.23-.616-1.014-.914-2.283-.895-3.807V11.954Zm25.067 27.443c-2.368 0-4.394-.469-6.08-1.407-1.686-.947-2.978-2.263-3.878-3.948-.9-1.696-1.35-3.66-1.35-5.895 0-2.235.45-4.195 1.35-5.881a9.558 9.558 0 0 1 3.878-3.949c1.686-.947 3.712-1.42 6.08-1.42 2.367 0 4.394.473 6.08 1.42a9.558 9.558 0 0 1 3.877 3.949c.9 1.686 1.35 3.646 1.35 5.88 0 2.236-.45 4.2-1.35 5.896a9.675 9.675 0 0 1-3.878 3.949c-1.685.937-3.712 1.406-6.08 1.406Zm.056-5.796a2.45 2.45 0 0 0 1.72-.667c.482-.445.856-1.08 1.121-1.904.265-.824.398-1.804.398-2.94 0-1.146-.133-2.126-.398-2.94-.265-.824-.639-1.459-1.122-1.904a2.45 2.45 0 0 0-1.719-.668c-.7 0-1.302.223-1.804.668-.502.445-.885 1.08-1.15 1.904-.265.814-.398 1.794-.398 2.94 0 1.136.133 2.116.398 2.94.265.824.648 1.459 1.15 1.904.502.445 1.104.667 1.804.667Z"/><path transform="translate(10, 0)" fill="#5E60CE" d="M84.863 39.284a7.955 7.955 0 0 1-4.29-1.221c-1.297-.815-2.339-2.05-3.125-3.708-.776-1.657-1.165-3.745-1.165-6.264 0-2.633.408-4.773 1.222-6.42.824-1.648 1.884-2.856 3.182-3.623 1.307-.767 2.68-1.15 4.12-1.15 1.079 0 2.026.19 2.84.568.814.37 1.496.866 2.045 1.491.55.616.966 1.293 1.25 2.032h.114V9.909h7.841V39h-7.784v-3.58h-.17a6.134 6.134 0 0 1-3.352 3.366c-.796.332-1.705.498-2.728.498Zm2.898-6.023c.72 0 1.335-.208 1.846-.625.521-.426.919-1.022 1.193-1.79.285-.776.427-1.695.427-2.755 0-1.08-.142-2.003-.427-2.77-.274-.777-.672-1.368-1.193-1.776-.511-.416-1.127-.625-1.846-.625-.72 0-1.336.209-1.847.625-.502.408-.89 1-1.165 1.776-.265.767-.397 1.69-.397 2.77s.132 2.008.397 2.784c.275.767.663 1.359 1.165 1.776.511.407 1.127.61 1.847.61Zm25.497 6.137c-2.368 0-4.394-.469-6.08-1.407-1.685-.947-2.978-2.263-3.878-3.948-.899-1.696-1.349-3.66-1.349-5.895 0-2.235.45-4.195 1.349-5.881a9.565 9.565 0 0 1 3.878-3.949c1.686-.947 3.712-1.42 6.08-1.42 2.367 0 4.394.473 6.079 1.42a9.553 9.553 0 0 1 3.878 3.949c.9 1.686 1.35 3.646 1.35 5.88 0 2.236-.45 4.2-1.35 5.896-.899 1.685-2.192 3.002-3.878 3.949-1.685.937-3.712 1.406-6.079 1.406Zm.057-5.796a2.45 2.45 0 0 0 1.718-.667c.483-.445.857-1.08 1.123-1.904.265-.824.397-1.804.397-2.94 0-1.146-.132-2.126-.397-2.94-.266-.824-.64-1.459-1.123-1.904a2.449 2.449 0 0 0-1.718-.668c-.701 0-1.302.223-1.804.668-.502.445-.886 1.08-1.151 1.904-.265.814-.398 1.794-.398 2.94 0 1.136.133 2.116.398 2.94.265.824.649 1.459 1.151 1.904.502.445 1.103.667 1.804.667Z"/><g>
    <rect x="10" y="16" width="32" height="20" fill="#5E60CE" rx="4"/>
    <path fill="#f5f5fd" d="M16 24h16v-2H14v4Zm0"/>
    <path fill="#4EA8DE" d="M16  28h10v-2H14v4Z"/>
</g><defs><clipPath id="a"><path fill="#fff" d="M0 10h22v36H0z"/></clipPath></defs></svg>
